<mxfile host="app.diagrams.net" modified="2023-09-29T11:18:05.271Z" agent="Mozilla/5.0 (Windows NT 10.0; Win64; x64) AppleWebKit/537.36 (KHTML, like Gecko) Chrome/116.0.0.0 Safari/537.36" etag="FJ7_TUC8zsskfNO-ULAY" version="22.0.0" type="device">
  <diagram name="Page-1" id="2a216829-ef6e-dabb-86c1-c78162f3ba2b">
    <mxGraphModel dx="1677" dy="832" grid="1" gridSize="10" guides="1" tooltips="1" connect="1" arrows="1" fold="1" page="1" pageScale="1" pageWidth="850" pageHeight="1100" background="none" math="0" shadow="0">
      <root>
        <mxCell id="0" />
        <mxCell id="1" parent="0" />
        <mxCell id="L_Kmx5Juf8L-kicRbGEe-1" value="Вход на страницу авторизации" style="ellipse;whiteSpace=wrap;html=1;aspect=fixed;fillColor=#e1d5e7;strokeColor=#9673a6;" parent="1" vertex="1">
          <mxGeometry x="130" y="267.5" width="90" height="90" as="geometry" />
        </mxCell>
        <mxCell id="L_Kmx5Juf8L-kicRbGEe-2" value="Введение учетных данных" style="rounded=0;whiteSpace=wrap;html=1;" parent="1" vertex="1">
          <mxGeometry x="280" y="280" width="120" height="65" as="geometry" />
        </mxCell>
        <mxCell id="L_Kmx5Juf8L-kicRbGEe-3" value="" style="endArrow=classic;html=1;rounded=0;exitX=1;exitY=0.5;exitDx=0;exitDy=0;entryX=0;entryY=0.5;entryDx=0;entryDy=0;" parent="1" source="L_Kmx5Juf8L-kicRbGEe-1" target="L_Kmx5Juf8L-kicRbGEe-2" edge="1">
          <mxGeometry width="50" height="50" relative="1" as="geometry">
            <mxPoint x="240" y="460" as="sourcePoint" />
            <mxPoint x="290" y="410" as="targetPoint" />
          </mxGeometry>
        </mxCell>
        <mxCell id="L_Kmx5Juf8L-kicRbGEe-4" value="" style="endArrow=classic;html=1;rounded=0;entryX=0.5;entryY=1;entryDx=0;entryDy=0;" parent="1" target="L_Kmx5Juf8L-kicRbGEe-2" edge="1">
          <mxGeometry width="50" height="50" relative="1" as="geometry">
            <mxPoint x="340" y="370" as="sourcePoint" />
            <mxPoint x="400" y="400" as="targetPoint" />
          </mxGeometry>
        </mxCell>
        <mxCell id="L_Kmx5Juf8L-kicRbGEe-5" value="user&lt;br&gt;" style="text;html=1;align=center;verticalAlign=middle;resizable=0;points=[];autosize=1;strokeColor=none;fillColor=none;" parent="1" vertex="1">
          <mxGeometry x="315" y="360" width="50" height="30" as="geometry" />
        </mxCell>
        <mxCell id="L_Kmx5Juf8L-kicRbGEe-6" value="Проверка учетных данных" style="rhombus;whiteSpace=wrap;html=1;" parent="1" vertex="1">
          <mxGeometry x="460" y="256.25" width="80" height="117.5" as="geometry" />
        </mxCell>
        <mxCell id="L_Kmx5Juf8L-kicRbGEe-8" value="" style="endArrow=classic;html=1;rounded=0;" parent="1" edge="1">
          <mxGeometry width="50" height="50" relative="1" as="geometry">
            <mxPoint x="400" y="314.58" as="sourcePoint" />
            <mxPoint x="460" y="314.58" as="targetPoint" />
          </mxGeometry>
        </mxCell>
        <mxCell id="L_Kmx5Juf8L-kicRbGEe-9" value="" style="endArrow=classic;html=1;rounded=0;exitX=0.5;exitY=0;exitDx=0;exitDy=0;" parent="1" source="L_Kmx5Juf8L-kicRbGEe-6" edge="1">
          <mxGeometry width="50" height="50" relative="1" as="geometry">
            <mxPoint x="500" y="240" as="sourcePoint" />
            <mxPoint x="580" y="200" as="targetPoint" />
            <Array as="points">
              <mxPoint x="500" y="200" />
            </Array>
          </mxGeometry>
        </mxCell>
        <mxCell id="L_Kmx5Juf8L-kicRbGEe-55" value="" style="edgeStyle=orthogonalEdgeStyle;rounded=0;orthogonalLoop=1;jettySize=auto;html=1;" parent="1" source="L_Kmx5Juf8L-kicRbGEe-10" target="L_Kmx5Juf8L-kicRbGEe-54" edge="1">
          <mxGeometry relative="1" as="geometry" />
        </mxCell>
        <mxCell id="L_Kmx5Juf8L-kicRbGEe-10" value="Требуется напоминание" style="rounded=0;whiteSpace=wrap;html=1;" parent="1" vertex="1">
          <mxGeometry x="580" y="170" width="120" height="60" as="geometry" />
        </mxCell>
        <mxCell id="L_Kmx5Juf8L-kicRbGEe-66" value="" style="edgeStyle=orthogonalEdgeStyle;rounded=0;orthogonalLoop=1;jettySize=auto;html=1;" parent="1" source="L_Kmx5Juf8L-kicRbGEe-11" target="L_Kmx5Juf8L-kicRbGEe-65" edge="1">
          <mxGeometry relative="1" as="geometry" />
        </mxCell>
        <mxCell id="L_Kmx5Juf8L-kicRbGEe-11" value="Тестирование" style="rounded=0;whiteSpace=wrap;html=1;" parent="1" vertex="1">
          <mxGeometry x="580" y="390" width="120" height="60" as="geometry" />
        </mxCell>
        <mxCell id="L_Kmx5Juf8L-kicRbGEe-12" value="" style="endArrow=classic;html=1;rounded=0;exitX=0.5;exitY=1;exitDx=0;exitDy=0;" parent="1" source="L_Kmx5Juf8L-kicRbGEe-6" edge="1">
          <mxGeometry width="50" height="50" relative="1" as="geometry">
            <mxPoint x="500" y="476" as="sourcePoint" />
            <mxPoint x="580" y="420" as="targetPoint" />
            <Array as="points">
              <mxPoint x="500" y="420" />
            </Array>
          </mxGeometry>
        </mxCell>
        <mxCell id="L_Kmx5Juf8L-kicRbGEe-13" value="Нет&lt;br&gt;" style="text;html=1;align=center;verticalAlign=middle;resizable=0;points=[];autosize=1;strokeColor=none;fillColor=none;" parent="1" vertex="1">
          <mxGeometry x="460" y="200" width="40" height="30" as="geometry" />
        </mxCell>
        <mxCell id="L_Kmx5Juf8L-kicRbGEe-14" value="да&lt;br&gt;" style="text;html=1;align=center;verticalAlign=middle;resizable=0;points=[];autosize=1;strokeColor=none;fillColor=none;" parent="1" vertex="1">
          <mxGeometry x="460" y="390" width="40" height="30" as="geometry" />
        </mxCell>
        <mxCell id="L_Kmx5Juf8L-kicRbGEe-16" value="" style="endArrow=classic;html=1;rounded=0;entryX=0.5;entryY=1;entryDx=0;entryDy=0;" parent="1" edge="1">
          <mxGeometry width="50" height="50" relative="1" as="geometry">
            <mxPoint x="640" y="255" as="sourcePoint" />
            <mxPoint x="640" y="230" as="targetPoint" />
          </mxGeometry>
        </mxCell>
        <mxCell id="L_Kmx5Juf8L-kicRbGEe-17" value="user&lt;br&gt;" style="text;html=1;align=center;verticalAlign=middle;resizable=0;points=[];autosize=1;strokeColor=none;fillColor=none;" parent="1" vertex="1">
          <mxGeometry x="615" y="245" width="50" height="30" as="geometry" />
        </mxCell>
        <mxCell id="L_Kmx5Juf8L-kicRbGEe-19" value="" style="endArrow=classic;html=1;rounded=0;entryX=0.5;entryY=1;entryDx=0;entryDy=0;" parent="1" source="L_Kmx5Juf8L-kicRbGEe-20" edge="1">
          <mxGeometry width="50" height="50" relative="1" as="geometry">
            <mxPoint x="640" y="475" as="sourcePoint" />
            <mxPoint x="640" y="450" as="targetPoint" />
          </mxGeometry>
        </mxCell>
        <mxCell id="L_Kmx5Juf8L-kicRbGEe-20" value="user&lt;br&gt;" style="text;html=1;align=center;verticalAlign=middle;resizable=0;points=[];autosize=1;strokeColor=none;fillColor=none;" parent="1" vertex="1">
          <mxGeometry x="615" y="465" width="50" height="30" as="geometry" />
        </mxCell>
        <mxCell id="L_Kmx5Juf8L-kicRbGEe-21" value="" style="endArrow=classic;html=1;rounded=0;entryX=0.5;entryY=0;entryDx=0;entryDy=0;exitX=0.5;exitY=1;exitDx=0;exitDy=0;exitPerimeter=0;" parent="1" source="L_Kmx5Juf8L-kicRbGEe-22" target="L_Kmx5Juf8L-kicRbGEe-10" edge="1">
          <mxGeometry width="50" height="50" relative="1" as="geometry">
            <mxPoint x="640" y="120" as="sourcePoint" />
            <mxPoint x="640" y="100" as="targetPoint" />
          </mxGeometry>
        </mxCell>
        <mxCell id="L_Kmx5Juf8L-kicRbGEe-22" value="Функция&lt;br&gt;" style="text;html=1;align=center;verticalAlign=middle;resizable=0;points=[];autosize=1;strokeColor=none;fillColor=none;" parent="1" vertex="1">
          <mxGeometry x="605" y="120" width="70" height="30" as="geometry" />
        </mxCell>
        <mxCell id="L_Kmx5Juf8L-kicRbGEe-26" value="" style="endArrow=classic;html=1;rounded=0;entryX=0.801;entryY=0.042;entryDx=0;entryDy=0;entryPerimeter=0;" parent="1" edge="1">
          <mxGeometry width="50" height="50" relative="1" as="geometry">
            <mxPoint x="380" y="255" as="sourcePoint" />
            <mxPoint x="380.1200000000001" y="280" as="targetPoint" />
            <Array as="points">
              <mxPoint x="380" y="255" />
            </Array>
          </mxGeometry>
        </mxCell>
        <mxCell id="L_Kmx5Juf8L-kicRbGEe-27" value="Веб-форма&lt;br&gt;" style="text;html=1;align=center;verticalAlign=middle;resizable=0;points=[];autosize=1;strokeColor=none;fillColor=none;" parent="1" vertex="1">
          <mxGeometry x="335" y="225" width="90" height="30" as="geometry" />
        </mxCell>
        <mxCell id="L_Kmx5Juf8L-kicRbGEe-54" value="Дать&amp;nbsp; новый пароль" style="whiteSpace=wrap;html=1;rounded=0;" parent="1" vertex="1">
          <mxGeometry x="780" y="170" width="120" height="60" as="geometry" />
        </mxCell>
        <mxCell id="L_Kmx5Juf8L-kicRbGEe-59" value="" style="endArrow=classic;html=1;rounded=0;entryX=0.5;entryY=0;entryDx=0;entryDy=0;exitX=0.5;exitY=1;exitDx=0;exitDy=0;exitPerimeter=0;" parent="1" source="L_Kmx5Juf8L-kicRbGEe-60" edge="1">
          <mxGeometry width="50" height="50" relative="1" as="geometry">
            <mxPoint x="840" y="120" as="sourcePoint" />
            <mxPoint x="840" y="170" as="targetPoint" />
          </mxGeometry>
        </mxCell>
        <mxCell id="L_Kmx5Juf8L-kicRbGEe-60" value="Функция&lt;br&gt;" style="text;html=1;align=center;verticalAlign=middle;resizable=0;points=[];autosize=1;strokeColor=none;fillColor=none;" parent="1" vertex="1">
          <mxGeometry x="805" y="120" width="70" height="30" as="geometry" />
        </mxCell>
        <mxCell id="L_Kmx5Juf8L-kicRbGEe-61" value="" style="endArrow=classic;html=1;rounded=0;entryX=0.5;entryY=1;entryDx=0;entryDy=0;" parent="1" edge="1">
          <mxGeometry width="50" height="50" relative="1" as="geometry">
            <mxPoint x="840" y="255" as="sourcePoint" />
            <mxPoint x="840" y="230" as="targetPoint" />
          </mxGeometry>
        </mxCell>
        <mxCell id="L_Kmx5Juf8L-kicRbGEe-62" value="ПО" style="text;html=1;align=center;verticalAlign=middle;resizable=0;points=[];autosize=1;strokeColor=none;fillColor=none;" parent="1" vertex="1">
          <mxGeometry x="820" y="245" width="40" height="30" as="geometry" />
        </mxCell>
        <mxCell id="L_Kmx5Juf8L-kicRbGEe-63" value="" style="endArrow=classic;html=1;rounded=0;entryX=0.5;entryY=0;entryDx=0;entryDy=0;exitX=0.5;exitY=1;exitDx=0;exitDy=0;exitPerimeter=0;" parent="1" source="L_Kmx5Juf8L-kicRbGEe-64" edge="1">
          <mxGeometry width="50" height="50" relative="1" as="geometry">
            <mxPoint x="640" y="340" as="sourcePoint" />
            <mxPoint x="640" y="390" as="targetPoint" />
          </mxGeometry>
        </mxCell>
        <mxCell id="L_Kmx5Juf8L-kicRbGEe-64" value="Веб-форма" style="text;html=1;align=center;verticalAlign=middle;resizable=0;points=[];autosize=1;strokeColor=none;fillColor=none;" parent="1" vertex="1">
          <mxGeometry x="595" y="340" width="90" height="30" as="geometry" />
        </mxCell>
        <mxCell id="L_Kmx5Juf8L-kicRbGEe-73" value="" style="edgeStyle=orthogonalEdgeStyle;rounded=0;orthogonalLoop=1;jettySize=auto;html=1;" parent="1" source="L_Kmx5Juf8L-kicRbGEe-65" target="L_Kmx5Juf8L-kicRbGEe-72" edge="1">
          <mxGeometry relative="1" as="geometry" />
        </mxCell>
        <mxCell id="L_Kmx5Juf8L-kicRbGEe-65" value="Сохранение результатов" style="rounded=0;whiteSpace=wrap;html=1;" parent="1" vertex="1">
          <mxGeometry x="780" y="390" width="120" height="60" as="geometry" />
        </mxCell>
        <mxCell id="L_Kmx5Juf8L-kicRbGEe-67" value="" style="endArrow=classic;html=1;rounded=0;entryX=0.5;entryY=1;entryDx=0;entryDy=0;" parent="1" edge="1">
          <mxGeometry width="50" height="50" relative="1" as="geometry">
            <mxPoint x="840" y="475" as="sourcePoint" />
            <mxPoint x="840" y="450" as="targetPoint" />
          </mxGeometry>
        </mxCell>
        <mxCell id="L_Kmx5Juf8L-kicRbGEe-68" value="ПО" style="text;html=1;align=center;verticalAlign=middle;resizable=0;points=[];autosize=1;strokeColor=none;fillColor=none;" parent="1" vertex="1">
          <mxGeometry x="820" y="465" width="40" height="30" as="geometry" />
        </mxCell>
        <mxCell id="L_Kmx5Juf8L-kicRbGEe-70" value="" style="endArrow=classic;html=1;rounded=0;entryX=0.5;entryY=0;entryDx=0;entryDy=0;exitX=0.5;exitY=1;exitDx=0;exitDy=0;exitPerimeter=0;" parent="1" source="L_Kmx5Juf8L-kicRbGEe-71" edge="1">
          <mxGeometry width="50" height="50" relative="1" as="geometry">
            <mxPoint x="840" y="340" as="sourcePoint" />
            <mxPoint x="840" y="390" as="targetPoint" />
          </mxGeometry>
        </mxCell>
        <mxCell id="L_Kmx5Juf8L-kicRbGEe-71" value="Функция&lt;br&gt;" style="text;html=1;align=center;verticalAlign=middle;resizable=0;points=[];autosize=1;strokeColor=none;fillColor=none;" parent="1" vertex="1">
          <mxGeometry x="805" y="340" width="70" height="30" as="geometry" />
        </mxCell>
        <mxCell id="L_Kmx5Juf8L-kicRbGEe-72" value="" style="ellipse;whiteSpace=wrap;html=1;rounded=0;fillColor=#e51400;strokeColor=#B20000;fontColor=#ffffff;" parent="1" vertex="1">
          <mxGeometry x="1000" y="380" width="80" height="80" as="geometry" />
        </mxCell>
        <mxCell id="L_Kmx5Juf8L-kicRbGEe-75" value="" style="endArrow=classic;startArrow=classic;html=1;rounded=0;exitX=0.5;exitY=0;exitDx=0;exitDy=0;entryX=1;entryY=0.5;entryDx=0;entryDy=0;" parent="1" source="L_Kmx5Juf8L-kicRbGEe-2" target="L_Kmx5Juf8L-kicRbGEe-54" edge="1">
          <mxGeometry width="50" height="50" relative="1" as="geometry">
            <mxPoint x="330" y="260" as="sourcePoint" />
            <mxPoint x="960" y="200" as="targetPoint" />
            <Array as="points">
              <mxPoint x="340" y="80" />
              <mxPoint x="960" y="80" />
              <mxPoint x="960" y="200" />
            </Array>
          </mxGeometry>
        </mxCell>
        <mxCell id="L_Kmx5Juf8L-kicRbGEe-78" value="&lt;span style=&quot;font-size: 15px;&quot;&gt;БП 2.1.&amp;nbsp; &lt;br style=&quot;font-size: 15px;&quot;&gt;Вспомогательный&lt;br style=&quot;font-size: 15px;&quot;&gt;процесс авторизации&lt;br style=&quot;font-size: 15px;&quot;&gt;&lt;br style=&quot;font-size: 15px;&quot;&gt;&lt;/span&gt;" style="text;html=1;align=center;verticalAlign=middle;resizable=0;points=[];autosize=1;strokeColor=none;fillColor=none;imageWidth=30;imageHeight=40;fontSize=15;fontStyle=3" parent="1" vertex="1">
          <mxGeometry x="27.5" y="70" width="190" height="90" as="geometry" />
        </mxCell>
        <mxCell id="L_Kmx5Juf8L-kicRbGEe-117" value="&lt;span style=&quot;font-size: 15px;&quot;&gt;БП 2.1.1.&amp;nbsp;&amp;nbsp;&lt;br style=&quot;font-size: 15px;&quot;&gt;Создание перечня&lt;br style=&quot;font-size: 15px;&quot;&gt;&amp;nbsp;профессий&lt;br style=&quot;font-size: 15px;&quot;&gt;&lt;/span&gt;" style="text;html=1;align=center;verticalAlign=middle;resizable=0;points=[];autosize=1;strokeColor=none;fillColor=none;imageWidth=30;imageHeight=40;fontSize=15;fontStyle=3" parent="1" vertex="1">
          <mxGeometry x="35" y="520" width="160" height="70" as="geometry" />
        </mxCell>
        <mxCell id="Rym0EtZ7SkTwjoevZppc-3" value="&lt;span style=&quot;font-size: 15px;&quot;&gt;БП 2.1.2.&amp;nbsp;&amp;nbsp;&lt;br style=&quot;font-size: 15px;&quot;&gt;Создание перечня&lt;br style=&quot;font-size: 15px;&quot;&gt;&amp;nbsp;навыков с вопросами&lt;br style=&quot;font-size: 15px;&quot;&gt;&lt;/span&gt;" style="text;html=1;align=center;verticalAlign=middle;resizable=0;points=[];autosize=1;strokeColor=none;fillColor=none;imageWidth=30;imageHeight=40;fontSize=15;fontStyle=3" vertex="1" parent="1">
          <mxGeometry x="20" y="845" width="190" height="70" as="geometry" />
        </mxCell>
        <mxCell id="Rym0EtZ7SkTwjoevZppc-5" value="Вход на страницу создания перечня навыков" style="ellipse;whiteSpace=wrap;html=1;aspect=fixed;fillColor=#e1d5e7;strokeColor=#9673a6;" vertex="1" parent="1">
          <mxGeometry x="167.5" y="1000" width="90" height="90" as="geometry" />
        </mxCell>
        <mxCell id="Rym0EtZ7SkTwjoevZppc-6" value="" style="endArrow=classic;html=1;rounded=0;entryX=0;entryY=0.5;entryDx=0;entryDy=0;exitX=1;exitY=0.5;exitDx=0;exitDy=0;" edge="1" parent="1" source="Rym0EtZ7SkTwjoevZppc-5" target="Rym0EtZ7SkTwjoevZppc-7">
          <mxGeometry width="50" height="50" relative="1" as="geometry">
            <mxPoint x="277.5" y="1015" as="sourcePoint" />
            <mxPoint x="317.5" y="1045" as="targetPoint" />
          </mxGeometry>
        </mxCell>
        <mxCell id="Rym0EtZ7SkTwjoevZppc-7" value="Введение названия навыков" style="rounded=0;whiteSpace=wrap;html=1;" vertex="1" parent="1">
          <mxGeometry x="332.5" y="1015" width="120" height="60" as="geometry" />
        </mxCell>
        <mxCell id="Rym0EtZ7SkTwjoevZppc-8" value="" style="endArrow=classic;html=1;rounded=0;entryX=0.5;entryY=1;entryDx=0;entryDy=0;" edge="1" parent="1" source="Rym0EtZ7SkTwjoevZppc-9">
          <mxGeometry width="50" height="50" relative="1" as="geometry">
            <mxPoint x="392.5" y="1100" as="sourcePoint" />
            <mxPoint x="392.5" y="1075" as="targetPoint" />
          </mxGeometry>
        </mxCell>
        <mxCell id="Rym0EtZ7SkTwjoevZppc-9" value="admin&lt;br&gt;" style="text;html=1;align=center;verticalAlign=middle;resizable=0;points=[];autosize=1;strokeColor=none;fillColor=none;" vertex="1" parent="1">
          <mxGeometry x="362.5" y="1090" width="60" height="30" as="geometry" />
        </mxCell>
        <mxCell id="Rym0EtZ7SkTwjoevZppc-10" value="" style="endArrow=classic;html=1;rounded=0;entryX=0.5;entryY=0;entryDx=0;entryDy=0;exitX=0.5;exitY=1;exitDx=0;exitDy=0;exitPerimeter=0;" edge="1" parent="1" source="Rym0EtZ7SkTwjoevZppc-11">
          <mxGeometry width="50" height="50" relative="1" as="geometry">
            <mxPoint x="392.5" y="965" as="sourcePoint" />
            <mxPoint x="392.5" y="1015" as="targetPoint" />
          </mxGeometry>
        </mxCell>
        <mxCell id="Rym0EtZ7SkTwjoevZppc-11" value="Веб-форма" style="text;html=1;align=center;verticalAlign=middle;resizable=0;points=[];autosize=1;strokeColor=none;fillColor=none;" vertex="1" parent="1">
          <mxGeometry x="347.5" y="965" width="90" height="30" as="geometry" />
        </mxCell>
        <mxCell id="Rym0EtZ7SkTwjoevZppc-21" value="" style="edgeStyle=orthogonalEdgeStyle;rounded=0;orthogonalLoop=1;jettySize=auto;html=1;" edge="1" parent="1" source="Rym0EtZ7SkTwjoevZppc-12" target="Rym0EtZ7SkTwjoevZppc-20">
          <mxGeometry relative="1" as="geometry" />
        </mxCell>
        <mxCell id="Rym0EtZ7SkTwjoevZppc-12" value="Сохранение&amp;nbsp;" style="rounded=0;whiteSpace=wrap;html=1;" vertex="1" parent="1">
          <mxGeometry x="532.5" y="1015" width="120" height="60" as="geometry" />
        </mxCell>
        <mxCell id="Rym0EtZ7SkTwjoevZppc-13" value="" style="edgeStyle=orthogonalEdgeStyle;rounded=0;orthogonalLoop=1;jettySize=auto;html=1;" edge="1" parent="1" source="Rym0EtZ7SkTwjoevZppc-7" target="Rym0EtZ7SkTwjoevZppc-12">
          <mxGeometry relative="1" as="geometry" />
        </mxCell>
        <mxCell id="Rym0EtZ7SkTwjoevZppc-14" value="" style="endArrow=classic;html=1;rounded=0;entryX=0.5;entryY=1;entryDx=0;entryDy=0;" edge="1" parent="1">
          <mxGeometry width="50" height="50" relative="1" as="geometry">
            <mxPoint x="592.5" y="1100" as="sourcePoint" />
            <mxPoint x="592.5" y="1075" as="targetPoint" />
          </mxGeometry>
        </mxCell>
        <mxCell id="Rym0EtZ7SkTwjoevZppc-15" value="ПО" style="text;html=1;align=center;verticalAlign=middle;resizable=0;points=[];autosize=1;strokeColor=none;fillColor=none;" vertex="1" parent="1">
          <mxGeometry x="572.5" y="1090" width="40" height="30" as="geometry" />
        </mxCell>
        <mxCell id="Rym0EtZ7SkTwjoevZppc-16" value="" style="endArrow=classic;html=1;rounded=0;entryX=0.5;entryY=0;entryDx=0;entryDy=0;exitX=0.5;exitY=1;exitDx=0;exitDy=0;exitPerimeter=0;" edge="1" parent="1" source="Rym0EtZ7SkTwjoevZppc-17">
          <mxGeometry width="50" height="50" relative="1" as="geometry">
            <mxPoint x="592.5" y="965" as="sourcePoint" />
            <mxPoint x="592.5" y="1015" as="targetPoint" />
          </mxGeometry>
        </mxCell>
        <mxCell id="Rym0EtZ7SkTwjoevZppc-17" value="Функция&lt;br&gt;" style="text;html=1;align=center;verticalAlign=middle;resizable=0;points=[];autosize=1;strokeColor=none;fillColor=none;" vertex="1" parent="1">
          <mxGeometry x="557.5" y="965" width="70" height="30" as="geometry" />
        </mxCell>
        <mxCell id="Rym0EtZ7SkTwjoevZppc-23" value="" style="edgeStyle=orthogonalEdgeStyle;rounded=0;orthogonalLoop=1;jettySize=auto;html=1;" edge="1" parent="1" source="Rym0EtZ7SkTwjoevZppc-20" target="Rym0EtZ7SkTwjoevZppc-22">
          <mxGeometry relative="1" as="geometry" />
        </mxCell>
        <mxCell id="Rym0EtZ7SkTwjoevZppc-20" value="Введение вопроса" style="whiteSpace=wrap;html=1;rounded=0;" vertex="1" parent="1">
          <mxGeometry x="732.5" y="1015" width="120" height="60" as="geometry" />
        </mxCell>
        <mxCell id="Rym0EtZ7SkTwjoevZppc-25" value="" style="edgeStyle=orthogonalEdgeStyle;rounded=0;orthogonalLoop=1;jettySize=auto;html=1;" edge="1" parent="1" source="Rym0EtZ7SkTwjoevZppc-22" target="Rym0EtZ7SkTwjoevZppc-24">
          <mxGeometry relative="1" as="geometry" />
        </mxCell>
        <mxCell id="Rym0EtZ7SkTwjoevZppc-22" value="Сохранение" style="whiteSpace=wrap;html=1;rounded=0;" vertex="1" parent="1">
          <mxGeometry x="932.5" y="1015" width="120" height="60" as="geometry" />
        </mxCell>
        <mxCell id="Rym0EtZ7SkTwjoevZppc-26" value="Нет" style="edgeStyle=orthogonalEdgeStyle;rounded=0;orthogonalLoop=1;jettySize=auto;html=1;entryX=0.61;entryY=0.03;entryDx=0;entryDy=0;entryPerimeter=0;" edge="1" parent="1" source="Rym0EtZ7SkTwjoevZppc-24" target="Rym0EtZ7SkTwjoevZppc-20">
          <mxGeometry relative="1" as="geometry">
            <mxPoint x="1000" y="900" as="targetPoint" />
            <Array as="points">
              <mxPoint x="1193" y="950" />
              <mxPoint x="1193" y="910" />
              <mxPoint x="806" y="910" />
            </Array>
          </mxGeometry>
        </mxCell>
        <mxCell id="Rym0EtZ7SkTwjoevZppc-42" value="" style="edgeStyle=orthogonalEdgeStyle;rounded=0;orthogonalLoop=1;jettySize=auto;html=1;" edge="1" parent="1" source="Rym0EtZ7SkTwjoevZppc-24" target="Rym0EtZ7SkTwjoevZppc-41">
          <mxGeometry relative="1" as="geometry" />
        </mxCell>
        <mxCell id="Rym0EtZ7SkTwjoevZppc-24" value="Все?" style="rhombus;whiteSpace=wrap;html=1;rounded=0;" vertex="1" parent="1">
          <mxGeometry x="1152.5" y="1005" width="80" height="80" as="geometry" />
        </mxCell>
        <mxCell id="Rym0EtZ7SkTwjoevZppc-27" value="" style="endArrow=classic;html=1;rounded=0;entryX=0.5;entryY=0;entryDx=0;entryDy=0;exitX=0.5;exitY=1;exitDx=0;exitDy=0;exitPerimeter=0;" edge="1" parent="1" source="Rym0EtZ7SkTwjoevZppc-28">
          <mxGeometry width="50" height="50" relative="1" as="geometry">
            <mxPoint x="755" y="965" as="sourcePoint" />
            <mxPoint x="755" y="1015" as="targetPoint" />
          </mxGeometry>
        </mxCell>
        <mxCell id="Rym0EtZ7SkTwjoevZppc-28" value="Веб-форма" style="text;html=1;align=center;verticalAlign=middle;resizable=0;points=[];autosize=1;strokeColor=none;fillColor=none;" vertex="1" parent="1">
          <mxGeometry x="710" y="965" width="90" height="30" as="geometry" />
        </mxCell>
        <mxCell id="Rym0EtZ7SkTwjoevZppc-31" value="" style="endArrow=classic;html=1;rounded=0;entryX=0.5;entryY=1;entryDx=0;entryDy=0;" edge="1" parent="1" source="Rym0EtZ7SkTwjoevZppc-32">
          <mxGeometry width="50" height="50" relative="1" as="geometry">
            <mxPoint x="790" y="1100" as="sourcePoint" />
            <mxPoint x="790" y="1075" as="targetPoint" />
          </mxGeometry>
        </mxCell>
        <mxCell id="Rym0EtZ7SkTwjoevZppc-32" value="admin&lt;br&gt;" style="text;html=1;align=center;verticalAlign=middle;resizable=0;points=[];autosize=1;strokeColor=none;fillColor=none;" vertex="1" parent="1">
          <mxGeometry x="760" y="1100" width="60" height="30" as="geometry" />
        </mxCell>
        <mxCell id="Rym0EtZ7SkTwjoevZppc-37" value="" style="endArrow=classic;html=1;rounded=0;entryX=0.5;entryY=0;entryDx=0;entryDy=0;exitX=0.5;exitY=1;exitDx=0;exitDy=0;exitPerimeter=0;" edge="1" parent="1" source="Rym0EtZ7SkTwjoevZppc-38">
          <mxGeometry width="50" height="50" relative="1" as="geometry">
            <mxPoint x="995" y="965" as="sourcePoint" />
            <mxPoint x="995" y="1015" as="targetPoint" />
          </mxGeometry>
        </mxCell>
        <mxCell id="Rym0EtZ7SkTwjoevZppc-38" value="Функция&lt;br&gt;" style="text;html=1;align=center;verticalAlign=middle;resizable=0;points=[];autosize=1;strokeColor=none;fillColor=none;" vertex="1" parent="1">
          <mxGeometry x="960" y="965" width="70" height="30" as="geometry" />
        </mxCell>
        <mxCell id="L_Kmx5Juf8L-kicRbGEe-79" value="Вход на страницу создания профессии" style="ellipse;whiteSpace=wrap;html=1;aspect=fixed;fillColor=#e1d5e7;strokeColor=#9673a6;" parent="1" vertex="1">
          <mxGeometry x="167.5" y="675" width="90" height="90" as="geometry" />
        </mxCell>
        <mxCell id="L_Kmx5Juf8L-kicRbGEe-81" value="" style="endArrow=classic;html=1;rounded=0;entryX=0;entryY=0.5;entryDx=0;entryDy=0;exitX=1;exitY=0.5;exitDx=0;exitDy=0;" parent="1" source="L_Kmx5Juf8L-kicRbGEe-79" edge="1" target="L_Kmx5Juf8L-kicRbGEe-90">
          <mxGeometry width="50" height="50" relative="1" as="geometry">
            <mxPoint x="277.5" y="690" as="sourcePoint" />
            <mxPoint x="317.5" y="720" as="targetPoint" />
          </mxGeometry>
        </mxCell>
        <mxCell id="L_Kmx5Juf8L-kicRbGEe-90" value="Введение название профессии" style="rounded=0;whiteSpace=wrap;html=1;" parent="1" vertex="1">
          <mxGeometry x="332.5" y="690" width="120" height="60" as="geometry" />
        </mxCell>
        <mxCell id="L_Kmx5Juf8L-kicRbGEe-96" value="" style="endArrow=classic;html=1;rounded=0;entryX=0.5;entryY=1;entryDx=0;entryDy=0;" parent="1" source="L_Kmx5Juf8L-kicRbGEe-97" edge="1">
          <mxGeometry width="50" height="50" relative="1" as="geometry">
            <mxPoint x="392.5" y="775" as="sourcePoint" />
            <mxPoint x="392.5" y="750" as="targetPoint" />
          </mxGeometry>
        </mxCell>
        <mxCell id="L_Kmx5Juf8L-kicRbGEe-97" value="admin&lt;br&gt;" style="text;html=1;align=center;verticalAlign=middle;resizable=0;points=[];autosize=1;strokeColor=none;fillColor=none;" parent="1" vertex="1">
          <mxGeometry x="362.5" y="765" width="60" height="30" as="geometry" />
        </mxCell>
        <mxCell id="L_Kmx5Juf8L-kicRbGEe-107" value="" style="endArrow=classic;html=1;rounded=0;entryX=0.5;entryY=0;entryDx=0;entryDy=0;exitX=0.5;exitY=1;exitDx=0;exitDy=0;exitPerimeter=0;" parent="1" source="L_Kmx5Juf8L-kicRbGEe-108" edge="1">
          <mxGeometry width="50" height="50" relative="1" as="geometry">
            <mxPoint x="392.5" y="640" as="sourcePoint" />
            <mxPoint x="392.5" y="690" as="targetPoint" />
          </mxGeometry>
        </mxCell>
        <mxCell id="L_Kmx5Juf8L-kicRbGEe-108" value="Веб-форма" style="text;html=1;align=center;verticalAlign=middle;resizable=0;points=[];autosize=1;strokeColor=none;fillColor=none;" parent="1" vertex="1">
          <mxGeometry x="347.5" y="640" width="90" height="30" as="geometry" />
        </mxCell>
        <mxCell id="L_Kmx5Juf8L-kicRbGEe-110" value="Сохранение&amp;nbsp;" style="rounded=0;whiteSpace=wrap;html=1;" parent="1" vertex="1">
          <mxGeometry x="532.5" y="690" width="120" height="60" as="geometry" />
        </mxCell>
        <mxCell id="L_Kmx5Juf8L-kicRbGEe-89" value="" style="edgeStyle=orthogonalEdgeStyle;rounded=0;orthogonalLoop=1;jettySize=auto;html=1;" parent="1" source="L_Kmx5Juf8L-kicRbGEe-90" target="L_Kmx5Juf8L-kicRbGEe-110" edge="1">
          <mxGeometry relative="1" as="geometry" />
        </mxCell>
        <mxCell id="L_Kmx5Juf8L-kicRbGEe-111" value="" style="endArrow=classic;html=1;rounded=0;entryX=0.5;entryY=1;entryDx=0;entryDy=0;" parent="1" edge="1">
          <mxGeometry width="50" height="50" relative="1" as="geometry">
            <mxPoint x="592.5" y="775" as="sourcePoint" />
            <mxPoint x="592.5" y="750" as="targetPoint" />
          </mxGeometry>
        </mxCell>
        <mxCell id="L_Kmx5Juf8L-kicRbGEe-112" value="ПО" style="text;html=1;align=center;verticalAlign=middle;resizable=0;points=[];autosize=1;strokeColor=none;fillColor=none;" parent="1" vertex="1">
          <mxGeometry x="572.5" y="770" width="40" height="30" as="geometry" />
        </mxCell>
        <mxCell id="L_Kmx5Juf8L-kicRbGEe-113" value="" style="endArrow=classic;html=1;rounded=0;entryX=0.5;entryY=0;entryDx=0;entryDy=0;exitX=0.5;exitY=1;exitDx=0;exitDy=0;exitPerimeter=0;" parent="1" source="L_Kmx5Juf8L-kicRbGEe-114" edge="1">
          <mxGeometry width="50" height="50" relative="1" as="geometry">
            <mxPoint x="592.5" y="640" as="sourcePoint" />
            <mxPoint x="592.5" y="690" as="targetPoint" />
          </mxGeometry>
        </mxCell>
        <mxCell id="L_Kmx5Juf8L-kicRbGEe-114" value="Функция&lt;br&gt;" style="text;html=1;align=center;verticalAlign=middle;resizable=0;points=[];autosize=1;strokeColor=none;fillColor=none;" parent="1" vertex="1">
          <mxGeometry x="557.5" y="640" width="70" height="30" as="geometry" />
        </mxCell>
        <mxCell id="L_Kmx5Juf8L-kicRbGEe-115" value="" style="ellipse;whiteSpace=wrap;html=1;rounded=0;fillColor=#e51400;strokeColor=#B20000;fontColor=#ffffff;" parent="1" vertex="1">
          <mxGeometry x="752.5" y="680" width="80" height="80" as="geometry" />
        </mxCell>
        <mxCell id="L_Kmx5Juf8L-kicRbGEe-109" value="" style="edgeStyle=orthogonalEdgeStyle;rounded=0;orthogonalLoop=1;jettySize=auto;html=1;" parent="1" source="L_Kmx5Juf8L-kicRbGEe-110" target="L_Kmx5Juf8L-kicRbGEe-115" edge="1">
          <mxGeometry relative="1" as="geometry" />
        </mxCell>
        <mxCell id="Rym0EtZ7SkTwjoevZppc-39" value="" style="endArrow=classic;html=1;rounded=0;entryX=0.5;entryY=1;entryDx=0;entryDy=0;" edge="1" parent="1">
          <mxGeometry width="50" height="50" relative="1" as="geometry">
            <mxPoint x="995" y="1100" as="sourcePoint" />
            <mxPoint x="995" y="1075" as="targetPoint" />
          </mxGeometry>
        </mxCell>
        <mxCell id="Rym0EtZ7SkTwjoevZppc-40" value="ПО" style="text;html=1;align=center;verticalAlign=middle;resizable=0;points=[];autosize=1;strokeColor=none;fillColor=none;" vertex="1" parent="1">
          <mxGeometry x="975" y="1100" width="40" height="30" as="geometry" />
        </mxCell>
        <mxCell id="Rym0EtZ7SkTwjoevZppc-41" value="" style="ellipse;whiteSpace=wrap;html=1;rounded=0;fillColor=#e51400;strokeColor=#B20000;fontColor=#ffffff;" vertex="1" parent="1">
          <mxGeometry x="1312.5" y="1005" width="80" height="80" as="geometry" />
        </mxCell>
        <mxCell id="Rym0EtZ7SkTwjoevZppc-43" value="&lt;span style=&quot;font-size: 15px;&quot;&gt;БП 2.1.3.&amp;nbsp;&amp;nbsp;&lt;br style=&quot;font-size: 15px;&quot;&gt;Создание модельной&lt;br style=&quot;font-size: 15px;&quot;&gt;&amp;nbsp;профессий&lt;br style=&quot;font-size: 15px;&quot;&gt;&lt;/span&gt;" style="text;html=1;align=center;verticalAlign=middle;resizable=0;points=[];autosize=1;strokeColor=none;fillColor=none;imageWidth=30;imageHeight=40;fontStyle=3;fontSize=15;" vertex="1" parent="1">
          <mxGeometry x="25" y="1180" width="180" height="70" as="geometry" />
        </mxCell>
        <mxCell id="Rym0EtZ7SkTwjoevZppc-44" value="Вход на страницу создания модельной профессии" style="ellipse;whiteSpace=wrap;html=1;aspect=fixed;fillColor=#e1d5e7;strokeColor=#9673a6;" vertex="1" parent="1">
          <mxGeometry x="167.5" y="1340" width="90" height="90" as="geometry" />
        </mxCell>
        <mxCell id="Rym0EtZ7SkTwjoevZppc-45" value="" style="endArrow=classic;html=1;rounded=0;entryX=0;entryY=0.5;entryDx=0;entryDy=0;exitX=1;exitY=0.5;exitDx=0;exitDy=0;" edge="1" parent="1" source="Rym0EtZ7SkTwjoevZppc-44" target="Rym0EtZ7SkTwjoevZppc-46">
          <mxGeometry width="50" height="50" relative="1" as="geometry">
            <mxPoint x="277.5" y="1355" as="sourcePoint" />
            <mxPoint x="317.5" y="1385" as="targetPoint" />
          </mxGeometry>
        </mxCell>
        <mxCell id="Rym0EtZ7SkTwjoevZppc-60" value="" style="edgeStyle=orthogonalEdgeStyle;rounded=0;orthogonalLoop=1;jettySize=auto;html=1;" edge="1" parent="1" source="Rym0EtZ7SkTwjoevZppc-46" target="Rym0EtZ7SkTwjoevZppc-59">
          <mxGeometry relative="1" as="geometry" />
        </mxCell>
        <mxCell id="Rym0EtZ7SkTwjoevZppc-46" value="Выбрать профессию" style="rounded=0;whiteSpace=wrap;html=1;" vertex="1" parent="1">
          <mxGeometry x="332.5" y="1355" width="120" height="60" as="geometry" />
        </mxCell>
        <mxCell id="Rym0EtZ7SkTwjoevZppc-47" value="" style="endArrow=classic;html=1;rounded=0;entryX=0.5;entryY=1;entryDx=0;entryDy=0;" edge="1" parent="1" source="Rym0EtZ7SkTwjoevZppc-48">
          <mxGeometry width="50" height="50" relative="1" as="geometry">
            <mxPoint x="392.5" y="1440" as="sourcePoint" />
            <mxPoint x="392.5" y="1415" as="targetPoint" />
          </mxGeometry>
        </mxCell>
        <mxCell id="Rym0EtZ7SkTwjoevZppc-48" value="admin&lt;br&gt;" style="text;html=1;align=center;verticalAlign=middle;resizable=0;points=[];autosize=1;strokeColor=none;fillColor=none;" vertex="1" parent="1">
          <mxGeometry x="362.5" y="1430" width="60" height="30" as="geometry" />
        </mxCell>
        <mxCell id="Rym0EtZ7SkTwjoevZppc-49" value="" style="endArrow=classic;html=1;rounded=0;entryX=0.5;entryY=0;entryDx=0;entryDy=0;exitX=0.5;exitY=1;exitDx=0;exitDy=0;exitPerimeter=0;" edge="1" parent="1" source="Rym0EtZ7SkTwjoevZppc-50">
          <mxGeometry width="50" height="50" relative="1" as="geometry">
            <mxPoint x="392.5" y="1305" as="sourcePoint" />
            <mxPoint x="392.5" y="1355" as="targetPoint" />
          </mxGeometry>
        </mxCell>
        <mxCell id="Rym0EtZ7SkTwjoevZppc-50" value="Веб-форма" style="text;html=1;align=center;verticalAlign=middle;resizable=0;points=[];autosize=1;strokeColor=none;fillColor=none;" vertex="1" parent="1">
          <mxGeometry x="347.5" y="1305" width="90" height="30" as="geometry" />
        </mxCell>
        <mxCell id="Rym0EtZ7SkTwjoevZppc-51" value="Сохранение&amp;nbsp;" style="rounded=0;whiteSpace=wrap;html=1;" vertex="1" parent="1">
          <mxGeometry x="760" y="1355" width="120" height="60" as="geometry" />
        </mxCell>
        <mxCell id="Rym0EtZ7SkTwjoevZppc-53" value="" style="endArrow=classic;html=1;rounded=0;entryX=0.5;entryY=1;entryDx=0;entryDy=0;" edge="1" parent="1">
          <mxGeometry width="50" height="50" relative="1" as="geometry">
            <mxPoint x="820" y="1440" as="sourcePoint" />
            <mxPoint x="820" y="1415" as="targetPoint" />
          </mxGeometry>
        </mxCell>
        <mxCell id="Rym0EtZ7SkTwjoevZppc-54" value="ПО" style="text;html=1;align=center;verticalAlign=middle;resizable=0;points=[];autosize=1;strokeColor=none;fillColor=none;" vertex="1" parent="1">
          <mxGeometry x="800" y="1435" width="40" height="30" as="geometry" />
        </mxCell>
        <mxCell id="Rym0EtZ7SkTwjoevZppc-55" value="" style="endArrow=classic;html=1;rounded=0;entryX=0.5;entryY=0;entryDx=0;entryDy=0;exitX=0.5;exitY=1;exitDx=0;exitDy=0;exitPerimeter=0;" edge="1" parent="1" source="Rym0EtZ7SkTwjoevZppc-56">
          <mxGeometry width="50" height="50" relative="1" as="geometry">
            <mxPoint x="820" y="1305" as="sourcePoint" />
            <mxPoint x="820" y="1355" as="targetPoint" />
          </mxGeometry>
        </mxCell>
        <mxCell id="Rym0EtZ7SkTwjoevZppc-56" value="Функция&lt;br&gt;" style="text;html=1;align=center;verticalAlign=middle;resizable=0;points=[];autosize=1;strokeColor=none;fillColor=none;" vertex="1" parent="1">
          <mxGeometry x="785" y="1305" width="70" height="30" as="geometry" />
        </mxCell>
        <mxCell id="Rym0EtZ7SkTwjoevZppc-57" value="" style="ellipse;whiteSpace=wrap;html=1;rounded=0;fillColor=#e51400;strokeColor=#B20000;fontColor=#ffffff;" vertex="1" parent="1">
          <mxGeometry x="980" y="1345" width="80" height="80" as="geometry" />
        </mxCell>
        <mxCell id="Rym0EtZ7SkTwjoevZppc-58" value="" style="edgeStyle=orthogonalEdgeStyle;rounded=0;orthogonalLoop=1;jettySize=auto;html=1;" edge="1" parent="1" source="Rym0EtZ7SkTwjoevZppc-51" target="Rym0EtZ7SkTwjoevZppc-57">
          <mxGeometry relative="1" as="geometry" />
        </mxCell>
        <mxCell id="Rym0EtZ7SkTwjoevZppc-59" value="Заполнить баллы навыков" style="whiteSpace=wrap;html=1;rounded=0;" vertex="1" parent="1">
          <mxGeometry x="532.5" y="1355" width="120" height="60" as="geometry" />
        </mxCell>
        <mxCell id="Rym0EtZ7SkTwjoevZppc-61" value="" style="endArrow=classic;html=1;rounded=0;entryX=0.5;entryY=0;entryDx=0;entryDy=0;exitX=0.5;exitY=1;exitDx=0;exitDy=0;exitPerimeter=0;" edge="1" parent="1" source="Rym0EtZ7SkTwjoevZppc-62">
          <mxGeometry width="50" height="50" relative="1" as="geometry">
            <mxPoint x="592.5" y="1305" as="sourcePoint" />
            <mxPoint x="592.5" y="1355" as="targetPoint" />
          </mxGeometry>
        </mxCell>
        <mxCell id="Rym0EtZ7SkTwjoevZppc-62" value="Веб-форма" style="text;html=1;align=center;verticalAlign=middle;resizable=0;points=[];autosize=1;strokeColor=none;fillColor=none;" vertex="1" parent="1">
          <mxGeometry x="547.5" y="1305" width="90" height="30" as="geometry" />
        </mxCell>
        <mxCell id="Rym0EtZ7SkTwjoevZppc-63" value="" style="endArrow=classic;html=1;rounded=0;entryX=0.5;entryY=1;entryDx=0;entryDy=0;" edge="1" parent="1" source="Rym0EtZ7SkTwjoevZppc-64">
          <mxGeometry width="50" height="50" relative="1" as="geometry">
            <mxPoint x="592.5" y="1440" as="sourcePoint" />
            <mxPoint x="592.5" y="1415" as="targetPoint" />
          </mxGeometry>
        </mxCell>
        <mxCell id="Rym0EtZ7SkTwjoevZppc-64" value="admin&lt;br&gt;" style="text;html=1;align=center;verticalAlign=middle;resizable=0;points=[];autosize=1;strokeColor=none;fillColor=none;" vertex="1" parent="1">
          <mxGeometry x="562.5" y="1430" width="60" height="30" as="geometry" />
        </mxCell>
        <mxCell id="Rym0EtZ7SkTwjoevZppc-65" value="" style="endArrow=classic;html=1;rounded=0;exitX=1;exitY=0.5;exitDx=0;exitDy=0;entryX=0;entryY=0.5;entryDx=0;entryDy=0;" edge="1" parent="1" source="Rym0EtZ7SkTwjoevZppc-59" target="Rym0EtZ7SkTwjoevZppc-51">
          <mxGeometry width="50" height="50" relative="1" as="geometry">
            <mxPoint x="670" y="1380" as="sourcePoint" />
            <mxPoint x="720" y="1330" as="targetPoint" />
          </mxGeometry>
        </mxCell>
        <mxCell id="Rym0EtZ7SkTwjoevZppc-83" value="&lt;span style=&quot;font-size: 15px;&quot;&gt;БП 2.1.4&amp;nbsp;&amp;nbsp;&lt;br style=&quot;font-size: 15px;&quot;&gt;Редактирование&lt;br style=&quot;font-size: 15px;&quot;&gt;&lt;/span&gt;" style="text;html=1;align=center;verticalAlign=middle;resizable=0;points=[];autosize=1;strokeColor=none;fillColor=none;imageWidth=30;imageHeight=40;fontSize=15;fontStyle=3" vertex="1" parent="1">
          <mxGeometry x="40" y="1510" width="150" height="50" as="geometry" />
        </mxCell>
        <mxCell id="Rym0EtZ7SkTwjoevZppc-84" value="Вход на страницу редактировани\" style="ellipse;whiteSpace=wrap;html=1;aspect=fixed;fillColor=#e1d5e7;strokeColor=#9673a6;" vertex="1" parent="1">
          <mxGeometry x="167.5" y="1660" width="90" height="90" as="geometry" />
        </mxCell>
        <mxCell id="Rym0EtZ7SkTwjoevZppc-85" value="" style="endArrow=classic;html=1;rounded=0;entryX=0;entryY=0.5;entryDx=0;entryDy=0;exitX=1;exitY=0.5;exitDx=0;exitDy=0;" edge="1" parent="1" source="Rym0EtZ7SkTwjoevZppc-84" target="Rym0EtZ7SkTwjoevZppc-86">
          <mxGeometry width="50" height="50" relative="1" as="geometry">
            <mxPoint x="277.5" y="1675" as="sourcePoint" />
            <mxPoint x="317.5" y="1705" as="targetPoint" />
          </mxGeometry>
        </mxCell>
        <mxCell id="Rym0EtZ7SkTwjoevZppc-86" value="Редактирование" style="rounded=0;whiteSpace=wrap;html=1;" vertex="1" parent="1">
          <mxGeometry x="332.5" y="1675" width="120" height="60" as="geometry" />
        </mxCell>
        <mxCell id="Rym0EtZ7SkTwjoevZppc-87" value="" style="endArrow=classic;html=1;rounded=0;entryX=0.5;entryY=1;entryDx=0;entryDy=0;" edge="1" parent="1" source="Rym0EtZ7SkTwjoevZppc-88">
          <mxGeometry width="50" height="50" relative="1" as="geometry">
            <mxPoint x="392.5" y="1760" as="sourcePoint" />
            <mxPoint x="392.5" y="1735" as="targetPoint" />
          </mxGeometry>
        </mxCell>
        <mxCell id="Rym0EtZ7SkTwjoevZppc-88" value="admin&lt;br&gt;" style="text;html=1;align=center;verticalAlign=middle;resizable=0;points=[];autosize=1;strokeColor=none;fillColor=none;" vertex="1" parent="1">
          <mxGeometry x="362.5" y="1750" width="60" height="30" as="geometry" />
        </mxCell>
        <mxCell id="Rym0EtZ7SkTwjoevZppc-89" value="" style="endArrow=classic;html=1;rounded=0;entryX=0.5;entryY=0;entryDx=0;entryDy=0;exitX=0.5;exitY=1;exitDx=0;exitDy=0;exitPerimeter=0;" edge="1" parent="1" source="Rym0EtZ7SkTwjoevZppc-90">
          <mxGeometry width="50" height="50" relative="1" as="geometry">
            <mxPoint x="392.5" y="1625" as="sourcePoint" />
            <mxPoint x="392.5" y="1675" as="targetPoint" />
          </mxGeometry>
        </mxCell>
        <mxCell id="Rym0EtZ7SkTwjoevZppc-90" value="Веб-форма" style="text;html=1;align=center;verticalAlign=middle;resizable=0;points=[];autosize=1;strokeColor=none;fillColor=none;" vertex="1" parent="1">
          <mxGeometry x="347.5" y="1625" width="90" height="30" as="geometry" />
        </mxCell>
        <mxCell id="Rym0EtZ7SkTwjoevZppc-91" value="Сохранение&amp;nbsp;" style="rounded=0;whiteSpace=wrap;html=1;" vertex="1" parent="1">
          <mxGeometry x="532.5" y="1675" width="120" height="60" as="geometry" />
        </mxCell>
        <mxCell id="Rym0EtZ7SkTwjoevZppc-92" value="" style="edgeStyle=orthogonalEdgeStyle;rounded=0;orthogonalLoop=1;jettySize=auto;html=1;" edge="1" parent="1" source="Rym0EtZ7SkTwjoevZppc-86" target="Rym0EtZ7SkTwjoevZppc-91">
          <mxGeometry relative="1" as="geometry" />
        </mxCell>
        <mxCell id="Rym0EtZ7SkTwjoevZppc-93" value="" style="endArrow=classic;html=1;rounded=0;entryX=0.5;entryY=1;entryDx=0;entryDy=0;" edge="1" parent="1">
          <mxGeometry width="50" height="50" relative="1" as="geometry">
            <mxPoint x="592.5" y="1760" as="sourcePoint" />
            <mxPoint x="592.5" y="1735" as="targetPoint" />
          </mxGeometry>
        </mxCell>
        <mxCell id="Rym0EtZ7SkTwjoevZppc-94" value="ПО" style="text;html=1;align=center;verticalAlign=middle;resizable=0;points=[];autosize=1;strokeColor=none;fillColor=none;" vertex="1" parent="1">
          <mxGeometry x="572.5" y="1755" width="40" height="30" as="geometry" />
        </mxCell>
        <mxCell id="Rym0EtZ7SkTwjoevZppc-95" value="" style="endArrow=classic;html=1;rounded=0;entryX=0.5;entryY=0;entryDx=0;entryDy=0;exitX=0.5;exitY=1;exitDx=0;exitDy=0;exitPerimeter=0;" edge="1" parent="1" source="Rym0EtZ7SkTwjoevZppc-96">
          <mxGeometry width="50" height="50" relative="1" as="geometry">
            <mxPoint x="592.5" y="1625" as="sourcePoint" />
            <mxPoint x="592.5" y="1675" as="targetPoint" />
          </mxGeometry>
        </mxCell>
        <mxCell id="Rym0EtZ7SkTwjoevZppc-96" value="Функция&lt;br&gt;" style="text;html=1;align=center;verticalAlign=middle;resizable=0;points=[];autosize=1;strokeColor=none;fillColor=none;" vertex="1" parent="1">
          <mxGeometry x="557.5" y="1625" width="70" height="30" as="geometry" />
        </mxCell>
        <mxCell id="Rym0EtZ7SkTwjoevZppc-97" value="" style="ellipse;whiteSpace=wrap;html=1;rounded=0;fillColor=#e51400;strokeColor=#B20000;fontColor=#ffffff;" vertex="1" parent="1">
          <mxGeometry x="752.5" y="1665" width="80" height="80" as="geometry" />
        </mxCell>
        <mxCell id="Rym0EtZ7SkTwjoevZppc-98" value="" style="edgeStyle=orthogonalEdgeStyle;rounded=0;orthogonalLoop=1;jettySize=auto;html=1;" edge="1" parent="1" source="Rym0EtZ7SkTwjoevZppc-91" target="Rym0EtZ7SkTwjoevZppc-97">
          <mxGeometry relative="1" as="geometry" />
        </mxCell>
        <mxCell id="Rym0EtZ7SkTwjoevZppc-99" value="&lt;span style=&quot;font-size: 15px;&quot;&gt;БП 2.1.4&amp;nbsp;&amp;nbsp;&lt;br style=&quot;font-size: 15px;&quot;&gt;Редактирование&lt;br style=&quot;font-size: 15px;&quot;&gt;&lt;/span&gt;" style="text;html=1;align=center;verticalAlign=middle;resizable=0;points=[];autosize=1;strokeColor=none;fillColor=none;imageWidth=30;imageHeight=40;fontSize=15;fontStyle=3" vertex="1" parent="1">
          <mxGeometry x="40" y="1820" width="150" height="50" as="geometry" />
        </mxCell>
        <mxCell id="Rym0EtZ7SkTwjoevZppc-100" value="Вход на страницу получения сертификатов" style="ellipse;whiteSpace=wrap;html=1;aspect=fixed;fillColor=#e1d5e7;strokeColor=#9673a6;" vertex="1" parent="1">
          <mxGeometry x="175" y="1960" width="90" height="90" as="geometry" />
        </mxCell>
        <mxCell id="Rym0EtZ7SkTwjoevZppc-101" value="" style="endArrow=classic;html=1;rounded=0;entryX=0;entryY=0.5;entryDx=0;entryDy=0;exitX=1;exitY=0.5;exitDx=0;exitDy=0;" edge="1" parent="1" source="Rym0EtZ7SkTwjoevZppc-100" target="Rym0EtZ7SkTwjoevZppc-102">
          <mxGeometry width="50" height="50" relative="1" as="geometry">
            <mxPoint x="285" y="1975" as="sourcePoint" />
            <mxPoint x="325" y="2005" as="targetPoint" />
          </mxGeometry>
        </mxCell>
        <mxCell id="Rym0EtZ7SkTwjoevZppc-102" value="Подготовка файлов" style="rounded=0;whiteSpace=wrap;html=1;" vertex="1" parent="1">
          <mxGeometry x="340" y="1975" width="120" height="60" as="geometry" />
        </mxCell>
        <mxCell id="Rym0EtZ7SkTwjoevZppc-103" value="" style="endArrow=classic;html=1;rounded=0;entryX=0.5;entryY=1;entryDx=0;entryDy=0;" edge="1" parent="1" source="Rym0EtZ7SkTwjoevZppc-104">
          <mxGeometry width="50" height="50" relative="1" as="geometry">
            <mxPoint x="400" y="2060" as="sourcePoint" />
            <mxPoint x="400" y="2035" as="targetPoint" />
          </mxGeometry>
        </mxCell>
        <mxCell id="Rym0EtZ7SkTwjoevZppc-104" value="ПО" style="text;html=1;align=center;verticalAlign=middle;resizable=0;points=[];autosize=1;strokeColor=none;fillColor=none;" vertex="1" parent="1">
          <mxGeometry x="380" y="2050" width="40" height="30" as="geometry" />
        </mxCell>
        <mxCell id="Rym0EtZ7SkTwjoevZppc-105" value="" style="endArrow=classic;html=1;rounded=0;entryX=0.5;entryY=0;entryDx=0;entryDy=0;exitX=0.5;exitY=1;exitDx=0;exitDy=0;exitPerimeter=0;" edge="1" parent="1" source="Rym0EtZ7SkTwjoevZppc-106">
          <mxGeometry width="50" height="50" relative="1" as="geometry">
            <mxPoint x="400" y="1925" as="sourcePoint" />
            <mxPoint x="400" y="1975" as="targetPoint" />
          </mxGeometry>
        </mxCell>
        <mxCell id="Rym0EtZ7SkTwjoevZppc-106" value="Функция" style="text;html=1;align=center;verticalAlign=middle;resizable=0;points=[];autosize=1;strokeColor=none;fillColor=none;" vertex="1" parent="1">
          <mxGeometry x="365" y="1925" width="70" height="30" as="geometry" />
        </mxCell>
        <mxCell id="Rym0EtZ7SkTwjoevZppc-116" value="" style="edgeStyle=orthogonalEdgeStyle;rounded=0;orthogonalLoop=1;jettySize=auto;html=1;" edge="1" parent="1" source="Rym0EtZ7SkTwjoevZppc-107" target="Rym0EtZ7SkTwjoevZppc-115">
          <mxGeometry relative="1" as="geometry" />
        </mxCell>
        <mxCell id="Rym0EtZ7SkTwjoevZppc-107" value="Сохранение&amp;nbsp;" style="rounded=0;whiteSpace=wrap;html=1;" vertex="1" parent="1">
          <mxGeometry x="540" y="1975" width="120" height="60" as="geometry" />
        </mxCell>
        <mxCell id="Rym0EtZ7SkTwjoevZppc-108" value="" style="edgeStyle=orthogonalEdgeStyle;rounded=0;orthogonalLoop=1;jettySize=auto;html=1;" edge="1" parent="1" source="Rym0EtZ7SkTwjoevZppc-102" target="Rym0EtZ7SkTwjoevZppc-107">
          <mxGeometry relative="1" as="geometry" />
        </mxCell>
        <mxCell id="Rym0EtZ7SkTwjoevZppc-109" value="" style="endArrow=classic;html=1;rounded=0;entryX=0.5;entryY=1;entryDx=0;entryDy=0;" edge="1" parent="1">
          <mxGeometry width="50" height="50" relative="1" as="geometry">
            <mxPoint x="600" y="2060" as="sourcePoint" />
            <mxPoint x="600" y="2035" as="targetPoint" />
          </mxGeometry>
        </mxCell>
        <mxCell id="Rym0EtZ7SkTwjoevZppc-110" value="user" style="text;html=1;align=center;verticalAlign=middle;resizable=0;points=[];autosize=1;strokeColor=none;fillColor=none;" vertex="1" parent="1">
          <mxGeometry x="575" y="2055" width="50" height="30" as="geometry" />
        </mxCell>
        <mxCell id="Rym0EtZ7SkTwjoevZppc-111" value="" style="endArrow=classic;html=1;rounded=0;entryX=0.5;entryY=0;entryDx=0;entryDy=0;exitX=0.5;exitY=1;exitDx=0;exitDy=0;exitPerimeter=0;" edge="1" parent="1" source="Rym0EtZ7SkTwjoevZppc-112">
          <mxGeometry width="50" height="50" relative="1" as="geometry">
            <mxPoint x="600" y="1925" as="sourcePoint" />
            <mxPoint x="600" y="1975" as="targetPoint" />
          </mxGeometry>
        </mxCell>
        <mxCell id="Rym0EtZ7SkTwjoevZppc-112" value="Веб-форма" style="text;html=1;align=center;verticalAlign=middle;resizable=0;points=[];autosize=1;strokeColor=none;fillColor=none;" vertex="1" parent="1">
          <mxGeometry x="555" y="1925" width="90" height="30" as="geometry" />
        </mxCell>
        <mxCell id="Rym0EtZ7SkTwjoevZppc-122" value="" style="edgeStyle=orthogonalEdgeStyle;rounded=0;orthogonalLoop=1;jettySize=auto;html=1;" edge="1" parent="1" source="Rym0EtZ7SkTwjoevZppc-115" target="Rym0EtZ7SkTwjoevZppc-121">
          <mxGeometry relative="1" as="geometry" />
        </mxCell>
        <mxCell id="Rym0EtZ7SkTwjoevZppc-115" value="Сохранение" style="whiteSpace=wrap;html=1;rounded=0;" vertex="1" parent="1">
          <mxGeometry x="740" y="1975" width="120" height="60" as="geometry" />
        </mxCell>
        <mxCell id="Rym0EtZ7SkTwjoevZppc-117" value="" style="endArrow=classic;html=1;rounded=0;entryX=0.5;entryY=1;entryDx=0;entryDy=0;" edge="1" parent="1" source="Rym0EtZ7SkTwjoevZppc-118">
          <mxGeometry width="50" height="50" relative="1" as="geometry">
            <mxPoint x="805" y="2060" as="sourcePoint" />
            <mxPoint x="805" y="2035" as="targetPoint" />
          </mxGeometry>
        </mxCell>
        <mxCell id="Rym0EtZ7SkTwjoevZppc-118" value="ПО" style="text;html=1;align=center;verticalAlign=middle;resizable=0;points=[];autosize=1;strokeColor=none;fillColor=none;" vertex="1" parent="1">
          <mxGeometry x="785" y="2050" width="40" height="30" as="geometry" />
        </mxCell>
        <mxCell id="Rym0EtZ7SkTwjoevZppc-119" value="" style="endArrow=classic;html=1;rounded=0;entryX=0.5;entryY=0;entryDx=0;entryDy=0;exitX=0.5;exitY=1;exitDx=0;exitDy=0;exitPerimeter=0;" edge="1" parent="1" source="Rym0EtZ7SkTwjoevZppc-120">
          <mxGeometry width="50" height="50" relative="1" as="geometry">
            <mxPoint x="800" y="1925" as="sourcePoint" />
            <mxPoint x="800" y="1975" as="targetPoint" />
          </mxGeometry>
        </mxCell>
        <mxCell id="Rym0EtZ7SkTwjoevZppc-120" value="Функция" style="text;html=1;align=center;verticalAlign=middle;resizable=0;points=[];autosize=1;strokeColor=none;fillColor=none;" vertex="1" parent="1">
          <mxGeometry x="765" y="1925" width="70" height="30" as="geometry" />
        </mxCell>
        <mxCell id="Rym0EtZ7SkTwjoevZppc-121" value="" style="ellipse;whiteSpace=wrap;html=1;rounded=0;fillColor=#e51400;strokeColor=#B20000;fontColor=#ffffff;" vertex="1" parent="1">
          <mxGeometry x="960" y="1965" width="80" height="80" as="geometry" />
        </mxCell>
      </root>
    </mxGraphModel>
  </diagram>
</mxfile>
